<?xml version="1.0" encoding="UTF-8"?>
<svg version="1.1" xmlns="http://www.w3.org/2000/svg" width="849" height="835">
<path d="M0 0 C7.90795671 4.44679305 14.72190719 10.53771063 21.3203125 16.703125 C30.03592797 24.78256416 39.29140997 31.26572949 51.55078125 30.9375 C63.25925413 29.36667382 74.32163562 22.26732175 84.48730469 16.65527344 C91.35351448 12.93617536 98.05750672 9.56311546 106.0078125 11.140625 C114.60664108 14.52303135 121.29931427 23.58717172 126.8203125 30.703125 C134.51173667 40.53806082 145.80337769 50.5245926 158.6953125 52.515625 C169.84036883 53.13188106 179.78709653 48.20741639 189.3203125 42.953125 C200.79707717 36.65403293 212.26658108 32.19490591 225.50390625 35.140625 C236.05100276 38.49175921 244.02915976 45.52513412 251.5859375 53.36328125 C254.13569479 55.96497804 256.83192816 58.33233082 259.6015625 60.6953125 C261.12925366 62.02349175 262.62533854 63.38827931 264.1015625 64.7734375 C269.29218438 69.62763018 274.24093908 73.51304103 280.6953125 76.515625 C281.62730469 76.97582031 281.62730469 76.97582031 282.578125 77.4453125 C292.64916531 81.86982812 303.53497603 81.12226377 313.6953125 77.515625 C320.79278403 74.59508159 327.18543987 70.42777203 333.6171875 66.28515625 C340.87862284 62.11075243 348.0111653 61.34114033 356.171875 63.02734375 C365.88276551 66.26957918 373.65815244 74.28706939 380.6328125 81.515625 C394.95927743 96.20326131 413.80882205 109.16399619 434.6953125 110.515625 C447.11802725 110.45975072 459.4521889 102.38246752 470.0703125 96.578125 C477.73350348 92.733179 486.89747145 91.41261222 495.23828125 93.58203125 C507.96149183 98.41644672 516.04021801 108.90585809 524.2578125 119.203125 C530.69688511 127.16269418 537.91277737 135.59191346 548.55859375 136.85546875 C561.21902941 137.47711888 571.62875701 131.72291801 582.69628906 126.28320312 C589.1367105 123.15333593 595.07501045 121.22906284 602.3203125 121.203125 C603.40570312 121.18636719 604.49109375 121.16960937 605.609375 121.15234375 C609.94723894 121.66300368 612.58932509 123.25163939 615.4453125 126.515625 C621.63563311 136.42013797 617.67210228 153.00786385 615.2355957 163.6003418 C614.68199542 166.09456259 614.12893979 168.58890431 613.57632446 171.08334351 C613.27072913 172.4482583 612.96505399 173.81315523 612.65930557 175.17803574 C611.07070042 182.29664561 609.55436642 189.43100926 608.02608597 196.56275642 C607.05663124 201.08324073 606.08289162 205.60280228 605.10969543 210.1224823 C597.21665239 246.79443382 589.34176279 283.47022693 581.49609375 320.15234375 C581.28489537 321.13978647 581.07369699 322.1272292 580.85609865 323.14459443 C578.24623763 335.34715733 575.63718753 347.54989356 573.02834523 359.75267428 C568.82305414 379.42245217 564.61579133 399.09180848 560.40867662 418.76119637 C559.700563 422.07184024 558.9924672 425.38248793 558.28437424 428.69313622 C549.01482471 472.03197222 539.73333881 515.36824538 530.4453125 558.703125 C530.1133739 560.25186026 529.78143547 561.80059556 529.44949722 563.3493309 C529.12401611 564.86792762 528.7985347 566.38652427 528.47305298 567.90512085 C528.31388649 568.64774827 528.15472 569.39037569 527.99073029 570.15550697 C527.2019301 573.83578229 526.41306757 577.51604423 525.62408066 581.19627953 C524.25875594 587.56500858 522.89367567 593.93378901 521.53052759 600.30298436 C520.79330615 603.74753451 520.05578746 607.19202097 519.31811523 610.63647461 C519.17249917 611.31643911 519.0268831 611.9964036 518.87685442 612.69697309 C516.80786243 622.35544424 514.72441443 632.01071818 512.63222313 641.66418934 C511.42635237 647.22865645 510.2244369 652.79397604 509.02337635 658.35948318 C508.20780554 662.13729223 507.39014233 665.91461864 506.56693268 669.6907711 C502.77650677 687.08310788 499.3146889 704.47481808 496.6328125 722.078125 C496.35693945 723.87426298 496.08096695 725.67038569 495.80488586 727.4664917 C495.68626348 728.24210827 495.56764109 729.01772484 495.44542408 729.81684494 C490.5143321 761.79623429 490.5143321 761.79623429 481.6953125 771.515625 C476.88635954 774.70104256 471.21727955 774.16406365 465.6953125 773.515625 C453.35975471 769.66635806 445.39871824 759.25147912 437.6953125 749.515625 C431.99032264 742.34116805 425.07346504 735.2740286 415.6953125 733.515625 C404.06326511 733.36053103 394.62033551 740.20470662 385.15625 746.18164062 C374.31704998 752.86805116 363.97267725 755.59951463 351.15234375 753 C340.06329906 748.87948066 331.33774583 737.20103411 323.5859375 728.671875 C312.32427351 715.44992991 312.32427351 715.44992991 296.6953125 709.515625 C284.24926966 710.22557138 272.6023163 713.48662872 260.6953125 716.953125 C220.93601506 728.44557699 220.93601506 728.44557699 206.6953125 722.515625 C203.52749817 720.72053021 200.5942178 718.71535091 197.6953125 716.515625 C196.8703125 715.89300781 196.0453125 715.27039063 195.1953125 714.62890625 C188.44481208 708.92262387 183.34300187 701.16152249 178.1953125 694.015625 C177.7619458 693.41637207 177.3285791 692.81711914 176.88208008 692.19970703 C175.07012942 689.64794008 173.69131475 687.50363175 172.6953125 684.515625 C170.91302314 683.37352683 170.91302314 683.37352683 168.6953125 682.515625 C167.6125 681.9278125 167.6125 681.9278125 166.5078125 681.328125 C159.3231791 679.25256424 151.36260408 682.25566961 144.4296875 684.31640625 C143.47443176 684.59405319 142.51917603 684.87170013 141.53497314 685.15776062 C138.50300675 686.04093734 135.47419798 686.93444666 132.4453125 687.828125 C130.42857826 688.41667684 128.41165256 689.00457302 126.39453125 689.59179688 C117.31487188 692.24182384 108.2473998 694.90748386 99.25195312 697.83300781 C91.84856106 699.80969653 84.53347881 698.89234783 77.6953125 695.515625 C66.32609705 688.35118223 57.78623706 677.89996897 49.98535156 667.171875 C45.83217594 661.52508526 41.54683968 655.79946739 34.6953125 653.515625 C20.70542335 652.90013969 7.60972504 658.41957081 -5.1171875 663.640625 C-29.1708667 673.50502145 -29.1708667 673.50502145 -37.921875 670.0234375 C-42.96403167 666.83282689 -46.89747574 662.23302081 -50.95898438 657.91064453 C-52.58758279 656.22236236 -54.31506402 654.70358868 -56.1171875 653.203125 C-58.83672393 650.9054873 -61.35758176 648.47428743 -63.84765625 645.93359375 C-64.82158325 644.94129761 -64.82158325 644.94129761 -65.81518555 643.92895508 C-67.10882036 642.60357073 -68.39584369 641.27168964 -69.67504883 639.93237305 C-75.66344665 633.79843762 -81.61188548 628.82650597 -90.4609375 628.38671875 C-98.61447528 628.75631593 -106.5486757 631.08043662 -114.44140625 633.01953125 C-115.5305835 633.28564209 -116.61976074 633.55175293 -117.74194336 633.82592773 C-119.89997714 634.35664914 -122.05588929 634.89609766 -124.20922852 635.44555664 C-134.95508749 638.11604954 -146.05262323 640.61461785 -156.1796875 634.890625 C-160.70046763 629.83798839 -161.54322798 624.50856188 -161.44534683 617.90649986 C-161.22139411 614.09983501 -160.4908607 610.46796023 -159.67529297 606.74926758 C-159.49710651 605.90144148 -159.31892006 605.05361538 -159.13533401 604.18009758 C-158.5312541 601.31735428 -157.91403425 598.4576062 -157.296875 595.59765625 C-156.84973628 593.4929842 -156.40338336 591.38814508 -155.95773315 589.28315735 C-154.69469092 583.32981509 -153.41966535 577.37908893 -152.14299011 571.42865753 C-150.82407967 565.27681812 -149.51594896 559.12267959 -148.20609236 552.96890759 C-144.50938451 535.60467388 -140.79296675 518.24467354 -137.07470345 500.88504541 C-135.21261375 492.19082435 -133.35281291 483.49611404 -131.4931407 474.80137563 C-124.88813382 443.92075354 -118.27861605 413.04110764 -111.64953291 382.16564411 C-111.48625608 381.40516445 -111.32297925 380.64468478 -111.15475464 379.86116028 C-110.9924915 379.1054024 -110.83022835 378.34964453 -110.66304815 377.5709849 C-108.60317636 367.97610771 -106.54627621 358.38059321 -104.4896946 348.78501034 C-103.02389663 341.94663995 -101.55643392 335.10863568 -100.08453369 328.27157593 C-90.13086322 282.02654914 -80.87567038 235.68740007 -72.45428467 189.13922119 C-66.83715431 158.10725849 -60.93800341 127.15303278 -54.5534668 96.27001953 C-54.04064209 93.78812948 -53.52802153 91.30619724 -53.015625 88.82421875 C-52.77425308 87.65509949 -52.53288116 86.48598022 -52.28419495 85.28143311 C-50.3002607 75.61498679 -48.50796044 65.92235703 -46.8046875 56.203125 C-38.71824389 10.63156137 -38.71824389 10.63156137 -24.3046875 0.515625 C-16.43976351 -4.08461356 -8.16002652 -3.6323629 0 0 Z " fill="#16A6DF" transform="translate(193.3046875,34.484375)"/>
<path d="M0 0 C2.8632741 -0.01342991 5.72585076 -0.04147976 8.58886719 -0.08203125 C12.06937815 -0.13128901 15.54924958 -0.15610713 19.03009415 -0.16322708 C20.98895346 -0.17317952 22.94764094 -0.20740942 24.90621948 -0.24203491 C26.09490631 -0.23918488 27.28359314 -0.23633484 28.50830078 -0.23339844 C30.07522171 -0.24552872 30.07522171 -0.24552872 31.67379761 -0.25790405 C34.40332031 0.35009766 34.40332031 0.35009766 36.72976685 2.68954468 C40.84068181 9.2249242 39.26838302 18.32293384 37.71337891 25.56201172 C36.4832371 30.49513854 35.13288494 35.39113396 33.74658203 40.28222656 C31.08272761 49.6835257 28.80519652 59.10408428 26.77832031 68.66259766 C24.76876779 78.0884801 22.69706864 87.4884659 20.40332031 96.85009766 C18.10820423 106.23615181 16.00359419 115.655713 13.96582031 125.10009766 C11.74623186 135.38557756 9.4102001 145.62979551 6.90332031 155.85009766 C3.63806517 169.1829198 0.68466581 182.57399544 -2.21551514 195.98937988 C-4.01979263 204.32483358 -5.87008727 212.65004954 -7.72167969 220.97509766 C-7.9789534 222.13286713 -7.9789534 222.13286713 -8.24142456 223.31402588 C-10.16710416 231.97792999 -12.11138255 240.63713202 -14.09667969 249.28759766 C-16.67045477 260.5198161 -19.0867375 271.78613371 -21.51025391 283.05151367 C-23.13984153 290.62409783 -24.77634965 298.19470172 -26.45605469 305.75634766 C-29.64530865 320.13150558 -32.65081748 334.52400652 -35.39794922 348.99047852 C-37.01161419 357.45121489 -38.75634829 365.8734591 -40.59667969 374.28759766 C-43.51094083 387.65096874 -46.03653376 401.07423957 -48.51315308 414.52348328 C-49.94234712 422.26219985 -51.46679871 429.98230518 -52.97924805 437.70507812 C-54.25807908 444.32472386 -55.32956227 450.90845565 -56.04199219 457.61572266 C-56.70971368 460.90730746 -57.91359783 463.45285227 -59.59667969 466.35009766 C-62.65650731 467.88001147 -65.29952931 467.96564699 -68.59667969 467.35009766 C-81.86027204 461.72917829 -90.77973025 449.04503533 -99.39746094 438.05322266 C-105.67108516 430.38065235 -112.86786888 426.79166859 -122.59667969 425.35009766 C-126.91313956 425.05512318 -131.20884857 425.02514708 -135.53417969 425.03759766 C-136.64986328 425.02148438 -137.76554688 425.00537109 -138.91503906 424.98876953 C-149.72683715 424.98243573 -158.42129217 428.09733375 -168.22558594 432.27587891 C-177.03129168 435.9279295 -187.4617886 437.15401062 -196.59667969 433.91259766 C-205.36642102 429.90597462 -212.57785395 423.39897819 -219.53417969 416.85009766 C-231.94540121 405.22701917 -244.22937318 397.50759066 -261.81542969 398.02587891 C-267.90557207 398.54807087 -273.6793552 399.85980852 -279.59667969 401.35009766 C-281.82530203 401.88690803 -284.05556145 402.41628559 -286.28662109 402.94287109 C-287.74191405 403.2874875 -289.19610702 403.63679683 -290.64892578 403.99169922 C-305.94923042 407.68019825 -324.52856834 409.47663609 -338.59667969 401.35009766 C-346.58827115 396.42577498 -352.8062368 390.3907823 -358.88183594 383.3112793 C-364.12528971 377.32178503 -369.96693976 372.84621987 -378.07617188 372.1315918 C-386.70568468 371.95137407 -394.52520258 373.66487727 -402.84667969 375.78759766 C-422.95560844 380.80742233 -442.88891761 384.24203158 -461.84667969 373.60009766 C-469.25079643 368.82402235 -475.22530202 362.91368854 -480.91308594 356.24072266 C-486.1132907 350.40104955 -490.73095476 346.94590071 -498.65917969 345.97509766 C-506.99401146 346.76889116 -514.80701279 350.04854499 -522.59667969 352.97509766 C-534.18723637 357.15129602 -549.25477112 360.24867379 -561.19042969 355.64306641 C-568.96686365 351.46449556 -575.63796378 345.48811467 -581.72167969 339.16259766 C-586.51541631 334.22148079 -591.57083202 330.65205197 -597.59667969 327.35009766 C-598.33917969 326.91568359 -599.08167969 326.48126953 -599.84667969 326.03369141 C-612.7902443 319.58438057 -628.61587712 323.52149614 -641.93481445 326.55297852 C-650.96931486 328.56543742 -660.7142427 330.39969328 -669.72167969 327.22509766 C-673.2588889 324.91822208 -675.3555447 322.94949628 -677.59667969 319.35009766 C-678.52132232 313.61731335 -677.6347453 310.17220656 -674.29199219 305.45947266 C-663.03422456 291.45211202 -647.31934319 282.74254328 -632.09667969 273.60009766 C-625.16412783 269.4305248 -618.82488362 264.9153428 -612.49804688 259.859375 C-558.21739509 216.77219096 -558.21739509 216.77219096 -538.92871094 217.86572266 C-529.72266272 219.77786668 -524.69253994 229.17428761 -519.82275391 236.46679688 C-518.64974116 238.26859303 -517.50874737 240.08558938 -516.38183594 241.91650391 C-511.31616131 250.134637 -505.64277917 257.01672564 -498.93017578 263.95166016 C-497.14830782 265.82030528 -495.46274906 267.76362334 -493.78417969 269.72509766 C-488.11566249 276.23641597 -481.99864275 281.76712799 -475.26464844 287.17431641 C-473.09272549 288.9455625 -471.02868716 290.7627548 -468.97167969 292.66259766 C-440.56808503 317.61636301 -404.21878732 333.89746183 -368.06103516 343.68164062 C-365.86195508 344.27814164 -363.66872099 344.89237041 -361.47558594 345.51025391 C-325.90236778 355.08625838 -287.66718197 354.49740983 -251.59667969 348.35009766 C-250.2936792 348.13377686 -250.2936792 348.13377686 -248.96435547 347.91308594 C-208.68080852 340.95601534 -169.93250715 320.33805226 -139.59667969 293.35009766 C-139.09330078 292.90843262 -138.58992187 292.46676758 -138.07128906 292.01171875 C-116.11258236 272.70976186 -99.26482629 249.47833113 -85.15917969 223.97509766 C-84.66281006 223.08411377 -84.16644043 222.19312988 -83.6550293 221.27514648 C-80.33530985 215.15336836 -77.80352515 208.95239566 -75.59667969 202.35009766 C-74.93667969 202.35009766 -74.27667969 202.35009766 -73.59667969 202.35009766 C-73.47969727 201.66592773 -73.36271484 200.98175781 -73.2421875 200.27685547 C-72.49939823 196.90901972 -71.41952159 193.77356355 -70.26855469 190.52197266 C-69.79468307 189.16331816 -69.32199328 187.80425102 -68.8503418 186.44482422 C-68.60428192 185.73588013 -68.35822205 185.02693604 -68.10470581 184.29650879 C-62.99178848 169.48162548 -59.11919856 154.84513498 -56.59667969 139.35009766 C-56.3650036 138.02693566 -56.1321113 136.70398544 -55.89746094 135.38134766 C-55.39271882 132.37437337 -54.96226662 129.37681734 -54.59667969 126.35009766 C-54.43039062 124.97337891 -54.43039062 124.97337891 -54.26074219 123.56884766 C-51.34480256 93.62135956 -56.00435542 64.51131334 -61.2590332 35.13525391 C-61.48917618 33.83548615 -61.48917618 33.83548615 -61.72396851 32.50946045 C-62.01348798 30.8778319 -62.30726583 29.24695091 -62.60610962 27.61700439 C-64.45425609 17.17710826 -64.45425609 17.17710826 -62.15917969 12.28759766 C-48.32970936 -3.5656976 -19.02303498 0.07981989 0 0 Z " fill="#016399" transform="translate(729.5966796875,322.64990234375)"/>
<path d="M0 0 C0.68094727 0.13390137 1.36189453 0.26780273 2.06347656 0.40576172 C30.05704484 6.02490864 56.57382525 20.3880094 78 39 C79.38832031 40.18722656 79.38832031 40.18722656 80.8046875 41.3984375 C87.27909216 47.08371805 92.76370266 53.16674061 98 60 C98.845625 61.010625 99.69125 62.02125 100.5625 63.0625 C102.59473925 67.21533673 103.19893101 71.48725347 102 76 C99.32444991 78.89396234 97.66964801 79.89753579 93.7578125 80.49609375 C68.72403554 80.09232315 45.5073274 70.24558979 22.37207031 61.45092773 C-14.06011995 47.67716192 -51.5535095 45.04227446 -88 60 C-113.04572773 71.42634249 -131.31785495 90.73396268 -142 116 C-143.55675744 120.28685727 -144.86245125 124.58495931 -146 129 C-146.1664502 129.6297876 -146.33290039 130.2595752 -146.50439453 130.90844727 C-153.330499 157.24810062 -150.694161 185.84907794 -146.97265625 212.4765625 C-146.08058134 218.909908 -145.5832519 225.2904868 -145.24389648 231.77099609 C-145.0767748 234.89685604 -145.0767748 234.89685604 -144.48339844 237.50732422 C-143.51598022 242.49587975 -143.81408989 247.63467796 -143.81469727 252.70019531 C-143.8125214 254.7300345 -143.79436709 256.75932 -143.77539062 258.7890625 C-143.74941296 276.28068726 -143.74941296 276.28068726 -147.40551758 280.69824219 C-149 282 -149 282 -151.6875 282.5625 C-163.52388907 280.55254714 -173.08976529 265.98047051 -179.70898438 256.83007812 C-204.72620469 221.36693828 -216.36444789 176.54818693 -209.44970703 133.41162109 C-203.59746137 102.02808005 -189.10840667 74.83327247 -167 52 C-166.52304687 51.49726563 -166.04609375 50.99453125 -165.5546875 50.4765625 C-154.67531632 39.01540676 -142.77651188 29.82911723 -129 22 C-128.31728027 21.608125 -127.63456055 21.21625 -126.93115234 20.8125 C-107.72315266 9.9022539 -87.68049334 3.0721698 -66 -1 C-64.71867188 -1.24621094 -63.43734375 -1.49242187 -62.1171875 -1.74609375 C-41.80839605 -4.92619608 -20.09491755 -4.19519065 0 0 Z " fill="#016399" transform="translate(461,254)"/>
<path d="M0 0 C1.97008645 1.97884239 2.89848924 3.26995686 3.28515625 6.05078125 C-0.58958909 45.41003655 -39.60690173 87.03144017 -68.64453125 111.37890625 C-100.7822729 137.57390249 -140.03832484 155.50893363 -181 162 C-181.88880859 162.14808105 -182.77761719 162.29616211 -183.69335938 162.44873047 C-208.27613954 166.44407735 -233.32666436 166.04489744 -258 163 C-258.80840332 162.90879883 -259.61680664 162.81759766 -260.44970703 162.72363281 C-307.50057777 157.33287978 -365.05078847 135.32470739 -398.125 99.875 C-400.26252245 96.59746558 -400.45691027 94.8380463 -400 91 C-392.73716577 87.36858288 -382.05166145 90.07547913 -374.76416016 92.46313477 C-367.34546703 95.06749646 -360.19420671 98.34503312 -352.99023438 101.48193359 C-343.23779262 105.64547604 -333.31378239 109.11133243 -323.25 112.4375 C-322.11504089 112.81384079 -322.11504089 112.81384079 -320.95715332 113.19778442 C-306.31210022 118.03706956 -291.74215121 122.26605224 -276.5625 125.125 C-275.27279297 125.37636719 -273.98308594 125.62773438 -272.65429688 125.88671875 C-258.70634946 128.5547788 -245.21706038 130.32818966 -231 130.1875 C-229.7625 130.18685547 -228.525 130.18621094 -227.25 130.18554688 C-213.34073613 130.1203472 -199.90491375 129.14025554 -186.25 126.4375 C-185.59201416 126.30883545 -184.93402832 126.1801709 -184.25610352 126.04760742 C-153.24841095 119.9368195 -122.61790357 110.4094231 -98 90 C-97.21383553 89.34959496 -97.21383553 89.34959496 -96.41178894 88.68605042 C-87.63650532 81.38798817 -79.39228526 73.68226633 -71.36547852 65.57128906 C-69.54440913 63.73172541 -67.71522496 61.90052859 -65.88476562 60.0703125 C-58.03561085 52.19838654 -50.58872819 44.19867477 -43.8125 35.375 C-13.31683964 -3.8085636 -13.31683964 -3.8085636 0 0 Z " fill="#FDFDFE" transform="translate(653,511)"/>
<path d="M0 0 C4.1064014 3.00000729 8.69618795 6.39237589 11 11 C11.4630027 18.29229246 11.4630027 18.29229246 9.97265625 20.5703125 C6.99662019 22.727202 3.63377445 23.75958027 0.1875 24.9375 C-9.27523767 28.17314578 -16.38229578 32.5091046 -21.34765625 41.41796875 C-24.13312783 47.4574163 -25.64337144 53.53239296 -26.87890625 60.0234375 C-27.04835251 60.89206924 -27.21779877 61.76070099 -27.39237976 62.65565491 C-27.93332873 65.43614781 -28.46699196 68.21797502 -29 71 C-29.35029688 72.81133522 -29.7008814 74.62261484 -30.05175781 76.43383789 C-31.14695752 82.10014793 -32.23049417 87.76865801 -33.3125 93.4375 C-33.71035396 95.51945252 -34.10822205 97.60140234 -34.50610352 99.68334961 C-35.49273263 104.84819389 -36.47790537 110.01331451 -37.46228027 115.17858887 C-37.95278195 117.75224726 -38.44363849 120.3258377 -38.93457031 122.89941406 C-41.77911946 137.81831234 -44.58897746 152.74320744 -47.33984375 167.6796875 C-51.70978348 191.40037983 -56.14802088 215.10223004 -60.81152344 238.76708984 C-63.8624044 254.25085379 -66.81792939 269.75104693 -69.72972107 285.26150513 C-70.74508602 290.66368622 -71.77637089 296.06270484 -72.8125 301.4609375 C-73.26718497 303.83561317 -73.72142845 306.21037246 -74.17529297 308.58520508 C-74.47331065 310.14405437 -74.77180744 311.70281216 -75.07080078 313.26147461 C-76.6190236 321.34806701 -78.10404906 329.43507936 -79.375 337.5703125 C-79.48282806 338.25265457 -79.59065613 338.93499664 -79.70175171 339.63801575 C-80.20151319 342.81007512 -80.68505477 345.9829119 -81.13916016 349.16186523 C-82.87013812 360.38906879 -86.40875927 370.39244561 -94 379 C-94.48082031 379.55816406 -94.96164063 380.11632812 -95.45703125 380.69140625 C-97 382 -97 382 -100.5625 382.375 C-101.696875 382.25125 -102.83125 382.1275 -104 382 C-110.13032883 372.80450676 -105.56547432 354.27829106 -103.60400391 343.91992188 C-101.16383372 332.12346457 -98.16068927 320.39413183 -94.79321289 308.82910156 C-91.80811774 298.5213326 -89.53710047 288.22426354 -87.66021729 277.66030884 C-87.17284705 274.91753765 -86.67538951 272.17675721 -86.17529297 269.4362793 C-85.65009235 266.55806724 -85.12538262 263.67977873 -84.60357666 260.8009491 C-82.83529553 251.04902664 -81.00266389 241.30965809 -79.14981079 231.57348633 C-78.6355101 228.86779277 -78.12463387 226.16146831 -77.61401367 223.45507812 C-77.29756691 221.78902381 -76.98092676 220.12300621 -76.6640625 218.45703125 C-76.52479843 217.71612747 -76.38553436 216.97522369 -76.24205017 216.21186829 C-75.57300637 212.71451073 -74.83283256 209.25974587 -73.94750977 205.81030273 C-73.17612588 202.7082702 -72.58957741 199.74039256 -72.17578125 196.578125 C-71.96924927 195.06943848 -71.96924927 195.06943848 -71.75854492 193.53027344 C-71.53775269 191.90653809 -71.53775269 191.90653809 -71.3125 190.25 C-69.7625776 179.34107559 -67.83473336 168.55393856 -65.6875 157.75 C-63.0551614 144.50118511 -60.55541626 131.23629209 -58.1875 117.9375 C-58.04065765 117.11302368 -57.89381531 116.28854736 -57.74252319 115.43908691 C-57.59956818 114.63579956 -57.45661316 113.83251221 -57.30932617 113.00488281 C-57.17049011 112.22476837 -57.03165405 111.44465393 -56.88861084 110.64089966 C-56.61888573 109.120222 -56.35058983 107.59929008 -56.08380127 106.07809448 C-55.55663897 103.07852326 -55.01739313 100.08523567 -54.40844727 97.10107422 C-52.77723146 89.06727868 -52.29480861 80.97869014 -51.73904419 72.81494141 C-47.33437775 8.82126724 -47.33437775 8.82126724 -32.3125 -4.75 C-22.01030594 -12.91307501 -9.44952212 -5.99849819 0 0 Z " fill="#FCFDFE" transform="translate(203,49)"/>
<path d="M0 0 C1.40113037 0.01015137 1.40113037 0.01015137 2.83056641 0.02050781 C15.69535449 0.21116295 27.70622684 2.4880872 40 6.25 C40.67434082 6.45608887 41.34868164 6.66217773 42.04345703 6.87451172 C63.02282064 13.44192196 80.02446476 24.17105092 96 39.25 C96.67546875 39.87261719 97.3509375 40.49523437 98.046875 41.13671875 C106.50270181 49.20357753 113.31952116 58.29760395 118.625 68.6875 C118.96789062 69.34943359 119.31078125 70.01136719 119.6640625 70.69335938 C121.61026604 74.6952404 122.50576985 77.80830326 122 82.25 C120.5 84.625 120.5 84.625 118 86.25 C113.642502 87.167368 111.44735404 87.06645613 107.5625 84.875 C104.06293245 82.3753089 100.74268334 79.6905027 97.42871094 76.95117188 C79.9299605 62.4933949 60.90954945 50.13155088 41 39.25 C40.37383789 38.90066406 39.74767578 38.55132812 39.10253906 38.19140625 C29.29007738 32.75941346 18.94373796 28.86670749 8.45037842 24.97341919 C-16.83091928 15.58816145 -16.83091928 15.58816145 -19 11.25 C-19.45093946 5.95146138 -19.45093946 5.95146138 -17.875 3.5 C-12.32390192 -0.20073205 -6.41364469 -0.06684481 0 0 Z " fill="#FCFDFE" transform="translate(480,193.75)"/>
<path d="M0 0 C1.9375 1 1.9375 1 3 3 C4.50824052 11.14449883 0.34829703 17.32886038 -4 24 C-23.10923315 49.16825829 -55.41282225 63.7566709 -86 68 C-86.65387695 68.09643799 -87.30775391 68.19287598 -87.98144531 68.29223633 C-95.29431362 69.25207166 -102.63604936 69.19840352 -110 69.1875 C-110.68576111 69.18722809 -111.37152222 69.18695618 -112.07806396 69.18667603 C-141.08285195 69.1337213 -141.08285195 69.1337213 -148 64 C-148.8125 61.625 -148.8125 61.625 -148 59 C-136.27243035 48.02244933 -115.52652229 46.00842414 -100.34301758 43.1953125 C-73.49800086 38.20697761 -50.40931895 28.76217912 -27.92333984 13.31738281 C-24.56959475 11.02025048 -21.19107689 8.76037373 -17.8125 6.5 C-16.87664062 5.86795654 -16.87664062 5.86795654 -15.921875 5.22314453 C-10.27293335 1.43493943 -6.96104818 -0.63282256 0 0 Z " fill="#FBFDFE" transform="translate(542,510)"/>
<path d="M0 0 C4.93613523 2.68296532 7.73792178 6.00781349 10.75 10.625 C22.56825511 27.82189021 41.1964169 42.00706034 61.8125 46.8125 C62.74707031 46.98394531 63.68164062 47.15539062 64.64453125 47.33203125 C67.28810748 48.08170212 68.38664386 48.79168529 70 51 C70 53.9375 70 53.9375 69 57 C63.23816478 62.76183522 57.33501669 63.41923579 49.5625 63.4375 C33.15285012 63.41518609 20.058215 57.12666475 8.3125 45.6875 C4.18119717 41.40886112 0.4130232 36.95309489 -3.1484375 32.19140625 C-7.09916964 27.51553973 -10.73783199 25.50064461 -16.625 23.9375 C-23.80196759 22.02418942 -23.80196759 22.02418942 -26 19 C-26.5 16.125 -26.5 16.125 -26 13 C-20.44010249 5.8259387 -9.46334382 -1.98696543 0 0 Z " fill="#FCFDFE" transform="translate(297,52)"/>
<path d="M0 0 C6.59962889 4.88393589 11.77580428 10.94182166 16.94482422 17.24926758 C20.37652077 21.39707503 24.06913631 24.97407673 28.22265625 28.4140625 C30.39488452 30.35235849 31.86823304 32.02143656 32.265625 34.97265625 C32.22222222 40.77777778 32.22222222 40.77777778 30 43 C23.82457115 44.10900896 18.69974664 43.08884509 13.4140625 39.8203125 C9.87256222 37.14986083 6.66993355 34.1405951 3.45068359 31.09838867 C-7.40116233 20.88947389 -16.80483931 17.52549412 -31.48632812 17.6484375 C-36.02408634 17.57003131 -38.36207745 17.43046174 -42.20703125 14.8359375 C-44 12 -44 12 -44.09375 8.91796875 C-41.92203599 3.12414601 -36.12007385 0.59370678 -30.828125 -2.109375 C-21.05305241 -6.00470468 -9.00141888 -5.49340323 0 0 Z " fill="#FAFCFE" transform="translate(694,140)"/>
<path d="M0 0 C10.63567427 5.08228193 18.91964127 12.97624598 27.01953125 21.36328125 C31.92073595 26.10357089 37.38287274 30.09976842 42.875 34.125 C42.5625 36.5 42.5625 36.5 41.875 39.125 C36.65491669 42.60505554 29.96160037 41.81766396 23.875 41.125 C8.78573334 37.69410714 -4.67969574 28.48939605 -16.97265625 19.43359375 C-20.93788488 16.52969026 -25.00655382 13.80525862 -29.125 11.125 C-29.03885752 6.81787607 -28.43925511 3.83723886 -25.5 0.6875 C-18.44506803 -4.70148294 -7.79622856 -2.88864246 0 0 Z " fill="#FBFDFE" transform="translate(423.125,84.875)"/>
<path d="M0 0 C3.46781868 1.43495946 6.11216914 3.62708698 9 6 C10.21950366 6.9811508 11.43960777 7.96155551 12.66015625 8.94140625 C15.42991551 11.17583107 18.18496438 13.42715202 20.93359375 15.6875 C24.50621917 18.61491616 28.13667687 21.45379451 31.8125 24.25 C36.85213772 28.09241035 41.78042668 32.04663925 46.66015625 36.08984375 C48.94141876 38.00854972 48.94141876 38.00854972 51.2890625 39.55859375 C53 41 53 41 53.3125 44.125 C53 47 53 47 52 48 C46.32235473 48.48397231 42.17803306 47.1927491 37.125 44.8125 C36.36614502 44.46662842 35.60729004 44.12075684 34.82543945 43.7644043 C26.77534087 40.02723031 18.92909548 35.87045605 11.11962891 31.6574707 C1.02386541 26.27595284 -8.89572595 21.84416274 -20.34375 20.5546875 C-23.49886552 19.89582514 -25.49646082 19.04092868 -28 17 C-28.66796875 14.6015625 -28.66796875 14.6015625 -28 12 C-25.55078125 9.6484375 -25.55078125 9.6484375 -22.3125 7.375 C-21.25675781 6.61960937 -20.20101562 5.86421875 -19.11328125 5.0859375 C-17.57220703 4.05339844 -17.57220703 4.05339844 -16 3 C-15.15308594 2.42636719 -14.30617188 1.85273437 -13.43359375 1.26171875 C-9.04846963 -1.01178862 -4.79698232 -0.77392204 0 0 Z " fill="#FAFCFE" transform="translate(547,104)"/>
<path d="M0 0 C3.15356793 3.15356793 4.23568243 5.8201678 4.4375 10.1875 C4 14 4 14 2.96484375 15.734375 C-0.12064611 17.72184759 -3.33958315 17.23130819 -6.875 17.0625 C-11.72771797 16.85477892 -15.50888278 16.96287327 -20 19 C-22.3320802 19.07646165 -24.66845878 19.09143299 -27 19 C-26.88636723 15.25011865 -25.61715618 13.25990498 -23.125 10.625 C-16.72499672 4.64553081 -9.17960414 -2.09359393 0 0 Z " fill="#F9FBFD" transform="translate(798,161)"/>
</svg>
